<svg width="245" height="63" viewBox="0 0 245 63" fill="none" xmlns="http://www.w3.org/2000/svg">
<path fill-rule="evenodd" clip-rule="evenodd" d="M55.9908 40.6994C54.7185 39.0455 54.5913 34.5927 48.6119 32.5571C45.3041 31.4121 23.1674 32.1755 17.6969 32.0482C11.463 31.7938 11.9719 27.5955 11.7174 21.9977C7.51909 22.1249 3.82965 21.4888 1.41243 24.5421C-0.623129 27.341 0.140204 32.4299 0.140204 36.3738C0.140204 45.0249 0.140204 53.8032 0.0129819 62.5816C2.04854 62.836 7.90076 62.836 9.80909 62.7088C11.3358 62.4544 11.8446 61.691 12.7352 60.8005C13.753 59.9099 14.3891 59.2738 15.2796 58.3832C20.4958 53.4216 18.8419 52.531 28.638 52.531C33.0908 52.531 44.1591 53.0399 47.8485 52.2766C53.5735 51.0044 55.9908 46.4244 55.9908 40.6994Z" fill="#725BFD"/>
<path fill-rule="evenodd" clip-rule="evenodd" d="M11.7174 21.9977C20.3685 22.2522 29.2741 21.9977 37.9252 21.9977C44.5408 21.9977 49.3752 23.1427 53.5735 18.181C54.7185 17.036 55.1002 14.8733 55.9908 13.7283C56.3724 -2.93785 43.6502 0.242709 29.6558 0.242709C24.058 0.242709 14.898 -1.15674 12.608 3.0416C10.8269 5.96771 11.9719 17.6722 11.7174 21.9977Z" fill="#4EE5D8"/>
<path fill-rule="evenodd" clip-rule="evenodd" d="M11.7174 21.9977C11.9719 27.5955 11.463 31.7938 17.6969 32.0482C23.1674 32.1755 45.3041 31.4121 48.6119 32.5571C54.5913 34.5927 54.7185 39.0455 55.9907 40.6993V13.7282C55.1002 14.8732 54.7185 17.036 53.5735 18.181C49.3752 23.1427 44.5407 21.9977 37.9252 21.9977C29.2741 21.9977 20.3685 22.2521 11.7174 21.9977Z" fill="#45A2FF"/>
<path d="M65.4 40.9186V22.722H73.2766C74.9056 22.722 76.3093 22.9906 77.4878 23.5279C78.6662 24.0478 79.5761 24.8016 80.2173 25.7895C80.8585 26.7773 81.1791 27.9557 81.1791 29.3248C81.1791 30.6765 80.8585 31.8463 80.2173 32.8341C79.5761 33.822 78.6662 34.5845 77.4878 35.1217C76.3093 35.6416 74.9056 35.9016 73.2766 35.9016H67.7396L69.6112 34.0039V40.9186H65.4ZM69.6112 34.4718L67.7396 32.4702H73.0426C74.3424 32.4702 75.3129 32.1929 75.9541 31.6384C76.5953 31.0838 76.9159 30.3126 76.9159 29.3248C76.9159 28.3196 76.5953 27.5398 75.9541 26.9852C75.3129 26.4307 74.3424 26.1534 73.0426 26.1534H67.7396L69.6112 24.1518V34.4718Z" fill="currentColor"/>
<path d="M90.6157 40.9186L98.7262 22.722H102.885L111.022 40.9186H106.603L99.948 24.8536H101.612L94.9309 40.9186H90.6157ZM94.671 37.0194L95.7888 33.822H105.147L106.291 37.0194H94.671Z" fill="currentColor"/>
<path d="M124.629 40.9186V33.484L125.591 36.0315L117.584 22.722H122.055L128.19 32.9381H125.617L131.777 22.722H135.911L127.904 36.0315L128.84 33.484V40.9186H124.629Z" fill="currentColor"/>
<path d="M153.498 41.2306C152.059 41.2306 150.725 40.9966 149.495 40.5287C148.281 40.0608 147.224 39.4023 146.323 38.5531C145.439 37.7039 144.746 36.7074 144.244 35.5636C143.758 34.4198 143.516 33.1721 143.516 31.8203C143.516 30.4686 143.758 29.2208 144.244 28.077C144.746 26.9332 145.448 25.9368 146.349 25.0876C147.25 24.2384 148.307 23.5799 149.521 23.1119C150.734 22.644 152.051 22.4101 153.472 22.4101C154.91 22.4101 156.227 22.644 157.423 23.1119C158.636 23.5799 159.685 24.2384 160.569 25.0876C161.47 25.9368 162.172 26.9332 162.674 28.077C163.177 29.2035 163.428 30.4513 163.428 31.8203C163.428 33.1721 163.177 34.4285 162.674 35.5896C162.172 36.7334 161.47 37.7299 160.569 38.5791C159.685 39.4109 158.636 40.0608 157.423 40.5287C156.227 40.9966 154.919 41.2306 153.498 41.2306ZM153.472 37.6432C154.286 37.6432 155.032 37.5046 155.707 37.2273C156.401 36.95 157.007 36.5515 157.527 36.0315C158.047 35.5116 158.446 34.8964 158.723 34.1859C159.017 33.4754 159.165 32.6868 159.165 31.8203C159.165 30.9538 159.017 30.1653 158.723 29.4548C158.446 28.7442 158.047 28.129 157.527 27.6091C157.025 27.0892 156.427 26.6906 155.733 26.4133C155.04 26.1361 154.286 25.9974 153.472 25.9974C152.657 25.9974 151.903 26.1361 151.21 26.4133C150.534 26.6906 149.937 27.0892 149.417 27.6091C148.897 28.129 148.489 28.7442 148.195 29.4548C147.918 30.1653 147.779 30.9538 147.779 31.8203C147.779 32.6695 147.918 33.458 148.195 34.1859C148.489 34.8964 148.888 35.5116 149.391 36.0315C149.911 36.5515 150.517 36.95 151.21 37.2273C151.903 37.5046 152.657 37.6432 153.472 37.6432Z" fill="currentColor"/>
<path d="M176.083 40.9186V22.722H183.96C185.589 22.722 186.993 22.9906 188.171 23.5279C189.35 24.0478 190.259 24.8016 190.901 25.7895C191.542 26.7773 191.862 27.9557 191.862 29.3248C191.862 30.6765 191.542 31.8463 190.901 32.8341C190.259 33.8046 189.35 34.5498 188.171 35.0697C186.993 35.5896 185.589 35.8496 183.96 35.8496H178.423L180.295 34.0039V40.9186H176.083ZM187.651 40.9186L183.102 34.3159H187.599L192.2 40.9186H187.651ZM180.295 34.4718L178.423 32.4962H183.726C185.026 32.4962 185.996 32.2189 186.637 31.6644C187.279 31.0925 187.599 30.3126 187.599 29.3248C187.599 28.3196 187.279 27.5398 186.637 26.9852C185.996 26.4307 185.026 26.1534 183.726 26.1534H178.423L180.295 24.1518V34.4718Z" fill="currentColor"/>
<path d="M203.691 40.9186V22.722H207.902V40.9186H203.691Z" fill="currentColor"/>
<path d="M226.015 41.2306C224.576 41.2306 223.242 40.9966 222.011 40.5287C220.798 40.0608 219.741 39.4023 218.84 38.5531C217.956 37.7039 217.263 36.7074 216.76 35.5636C216.275 34.4198 216.032 33.1721 216.032 31.8203C216.032 30.4686 216.275 29.2208 216.76 28.077C217.263 26.9332 217.965 25.9368 218.866 25.0876C219.767 24.2384 220.824 23.5799 222.037 23.1119C223.25 22.644 224.567 22.4101 225.989 22.4101C227.427 22.4101 228.744 22.644 229.94 23.1119C231.153 23.5799 232.201 24.2384 233.085 25.0876C233.986 25.9368 234.688 26.9332 235.191 28.077C235.693 29.2035 235.945 30.4513 235.945 31.8203C235.945 33.1721 235.693 34.4285 235.191 35.5896C234.688 36.7334 233.986 37.7299 233.085 38.5791C232.201 39.4109 231.153 40.0608 229.94 40.5287C228.744 40.9966 227.436 41.2306 226.015 41.2306ZM225.989 37.6432C226.803 37.6432 227.548 37.5046 228.224 37.2273C228.917 36.95 229.524 36.5515 230.044 36.0315C230.564 35.5116 230.962 34.8964 231.24 34.1859C231.534 33.4754 231.681 32.6868 231.681 31.8203C231.681 30.9538 231.534 30.1653 231.24 29.4548C230.962 28.7442 230.564 28.129 230.044 27.6091C229.541 27.0892 228.943 26.6906 228.25 26.4133C227.557 26.1361 226.803 25.9974 225.989 25.9974C225.174 25.9974 224.42 26.1361 223.727 26.4133C223.051 26.6906 222.453 27.0892 221.933 27.6091C221.413 28.129 221.006 28.7442 220.711 29.4548C220.434 30.1653 220.296 30.9538 220.296 31.8203C220.296 32.6695 220.434 33.458 220.711 34.1859C221.006 34.8964 221.405 35.5116 221.907 36.0315C222.427 36.5515 223.034 36.95 223.727 37.2273C224.42 37.5046 225.174 37.6432 225.989 37.6432Z" fill="currentColor"/>
</svg>
